<svg xmlns="http://www.w3.org/2000/svg" viewBox="0 0 800 600" width="800" height="600">
  <rect width="800" height="600" fill="#f0f2f5"/>
  <rect x="30" y="20" width="740" height="100" rx="16" fill="#3b82f6"/>
  <text x="50" y="55" fill="white" font-family="Arial" font-size="20" font-weight="bold">📅 Book an Appointment</text>
  <text x="50" y="80" fill="rgba(255,255,255,0.9)" font-family="Arial" font-size="12">Skip the line! Book a specific time slot to visit the finance office.</text>
  <rect x="50" y="95" width="130" height="22" rx="20" fill="rgba(255,255,255,0.2)"/>
  <text x="115" y="110" text-anchor="middle" fill="white" font-family="Arial" font-size="11">⏱️ 15 min appointments</text>
  <rect x="190" y="95" width="120" height="22" rx="20" fill="rgba(255,255,255,0.2)"/>
  <text x="250" y="110" text-anchor="middle" fill="white" font-family="Arial" font-size="11">✅ Instant confirmation</text>

  <!-- Left column -->
  <rect x="30" y="135" width="260" height="200" rx="12" fill="white" stroke="#e5e7eb" stroke-width="1"/>
  <text x="50" y="165" fill="#92400e" font-family="Arial" font-size="13" font-weight="bold">💰 Outstanding Balance</text>
  <text x="50" y="195" fill="#78350f" font-family="Arial" font-size="22" font-weight="700">UGX 1,140,000</text>
  <text x="50" y="220" fill="#92400e" font-family="Arial" font-size="11">Book an appointment or</text>
  <text x="50" y="240" fill="#059669" font-family="Arial" font-size="11" font-weight="bold">pay online now →</text>

  <rect x="30" y="350" width="260" height="220" rx="12" fill="white" stroke="#e5e7eb" stroke-width="1"/>
  <text x="50" y="380" fill="#1e293b" font-family="Arial" font-size="14" font-weight="bold">Your Upcoming Appointments</text>
  <rect x="50" y="400" width="220" height="70" rx="8" fill="white" stroke="#e5e7eb" stroke-width="1" stroke-dasharray="none"/>
  <rect x="50" y="400" width="4" height="70" rx="2" fill="#3b82f6"/>
  <text x="65" y="420" fill="#1e293b" font-family="Arial" font-size="12" font-weight="bold">📅 May 31, 2026</text>
  <text x="65" y="438" fill="#64748b" font-family="Arial" font-size="11">⏰ 09:00 AM</text>
  <text x="65" y="456" fill="#64748b" font-family="Arial" font-size="11">School Meals payment arrangement</text>
  <rect x="220" y="408" width="40" height="20" rx="10" fill="#dcfce7"/>
  <text x="240" y="422" text-anchor="middle" fill="#15803d" font-family="Arial" font-size="9" font-weight="bold">Scheduled</text>

  <!-- Right column - Booking form -->
  <rect x="310" y="135" width="460" height="435" rx="12" fill="white" stroke="#e5e7eb" stroke-width="1"/>
  <text x="330" y="170" fill="#1e293b" font-family="Arial" font-size="18" font-weight="bold">Book New Appointment</text>

  <text x="330" y="200" fill="#374151" font-family="Arial" font-size="12" font-weight="bold">Select Date</text>
  <rect x="330" y="208" width="420" height="36" rx="6" fill="#f8fafc" stroke="#d1d5db" stroke-width="1"/>
  <text x="345" y="231" fill="#9ca3af" font-family="Arial" font-size="12">2026-05-31</text>

  <text x="330" y="265" fill="#374151" font-family="Arial" font-size="12" font-weight="bold">Select Time Slot</text>
  <!-- Time slots grid -->
  <rect x="330" y="275" width="130" height="36" rx="8" fill="#3b82f6"/>
  <text x="395" y="298" text-anchor="middle" fill="white" font-family="Arial" font-size="11" font-weight="bold">08:00 AM</text>
  <rect x="470" y="275" width="130" height="36" rx="8" fill="white" stroke="#e5e7eb" stroke-width="1"/>
  <text x="535" y="298" text-anchor="middle" fill="#374151" font-family="Arial" font-size="11">08:30 AM</text>
  <rect x="610" y="275" width="130" height="36" rx="8" fill="white" stroke="#e5e7eb" stroke-width="1"/>
  <text x="675" y="298" text-anchor="middle" fill="#374151" font-family="Arial" font-size="11">09:00 AM</text>

  <rect x="330" y="318" width="130" height="36" rx="8" fill="white" stroke="#e5e7eb" stroke-width="1"/>
  <text x="395" y="341" text-anchor="middle" fill="#374151" font-family="Arial" font-size="11">09:30 AM</text>
  <rect x="470" y="318" width="130" height="36" rx="8" fill="white" stroke="#e5e7eb" stroke-width="1"/>
  <text x="535" y="341" text-anchor="middle" fill="#374151" font-family="Arial" font-size="11">10:00 AM</text>
  <rect x="610" y="318" width="130" height="36" rx="8" fill="white" stroke="#e5e7eb" stroke-width="1"/>
  <text x="675" y="341" text-anchor="middle" fill="#374151" font-family="Arial" font-size="11">10:30 AM</text>

  <text x="330" y="380" fill="#374151" font-family="Arial" font-size="12" font-weight="bold">Purpose of Visit</text>
  <rect x="330" y="388" width="420" height="36" rx="6" fill="#f8fafc" stroke="#d1d5db" stroke-width="1"/>
  <text x="345" y="411" fill="#9ca3af" font-family="Arial" font-size="12">Pay School Fees</text>

  <text x="330" y="445" fill="#374151" font-family="Arial" font-size="12" font-weight="bold">Additional Notes (Optional)</text>
  <rect x="330" y="453" width="420" height="60" rx="6" fill="#f8fafc" stroke="#d1d5db" stroke-width="1"/>
  <text x="345" y="475" fill="#9ca3af" font-family="Arial" font-size="11">Any additional information...</text>

  <rect x="330" y="525" width="420" height="36" rx="8" fill="#3b82f6"/>
  <text x="540" y="547" text-anchor="middle" fill="white" font-family="Arial" font-size="13" font-weight="bold">📅 Book Appointment</text>
</svg>