<svg xmlns="http://www.w3.org/2000/svg" viewBox="0 0 600 700" width="600" height="700">
  <rect width="600" height="700" fill="#f0f2f5"/>
  <rect x="50" y="30" width="500" height="640" rx="16" fill="white" stroke="#e5e7eb" stroke-width="1"/>
  <rect x="50" y="30" width="500" height="100" rx="16" fill="#10b981"/>
  <rect x="50" y="110" width="500" height="20" fill="#10b981"/>
  <circle cx="300" cy="70" r="30" fill="white"/>
  <text x="300" y="78" text-anchor="middle" fill="#10b981" font-family="Arial" font-size="24">✅</text>
  <text x="300" y="118" text-anchor="middle" fill="white" font-family="Arial" font-size="20" font-weight="bold">Payment Successful!</text>
  <text x="300" y="140" text-anchor="middle" fill="rgba(255,255,255,0.9)" font-family="Arial" font-size="11">Thank you for your payment</text>
  <!-- Receipt body -->
  <rect x="80" y="160" width="200" height="50" rx="6" fill="none"/>
  <text x="95" y="180" fill="#64748b" font-family="Arial" font-size="10">RECEIPT NUMBER</text>
  <text x="95" y="200" fill="#1e293b" font-family="Arial" font-size="15" font-weight="bold">RCP-000001</text>
  <rect x="310" y="160" width="210" height="50" rx="6" fill="none"/>
  <text x="325" y="180" fill="#64748b" font-family="Arial" font-size="10">DATE & TIME</text>
  <text x="325" y="200" fill="#1e293b" font-family="Arial" font-size="15" font-weight="bold">May 29, 2026 10:30 AM</text>

  <line x1="80" y1="230" x2="520" y2="230" stroke="#e5e7eb" stroke-width="1" stroke-dasharray="5,5"/>

  <text x="95" y="260" fill="#64748b" font-family="Arial" font-size="10">STUDENT INFORMATION</text>
  <text x="95" y="285" fill="#64748b" font-family="Arial" font-size="11">Name:</text>
  <text x="180" y="285" fill="#1e293b" font-family="Arial" font-size="11" font-weight="bold">Aisha Nakato</text>
  <text x="95" y="305" fill="#64748b" font-family="Arial" font-size="11">Student ID:</text>
  <text x="180" y="305" fill="#1e293b" font-family="Arial" font-size="11" font-weight="bold">S101</text>
  <text x="330" y="285" fill="#64748b" font-family="Arial" font-size="11">Class:</text>
  <text x="400" y="285" fill="#1e293b" font-family="Arial" font-size="11" font-weight="bold">Nursery</text>
  <text x="330" y="305" fill="#64748b" font-family="Arial" font-size="11">Payment Method:</text>
  <text x="450" y="305" fill="#1e293b" font-family="Arial" font-size="11" font-weight="bold">Mobile Money</text>

  <line x1="80" y1="320" x2="520" y2="320" stroke="#e5e7eb" stroke-width="1" stroke-dasharray="5,5"/>

  <text x="95" y="350" fill="#64748b" font-family="Arial" font-size="10">AMOUNT PAID</text>
  <text x="95" y="395" fill="#10b981" font-family="Arial" font-size="36" font-weight="800">UGX 1,140,000</text>
  <text x="95" y="420" fill="#64748b" font-family="Arial" font-size="11">USD $300.00</text>

  <line x1="80" y1="435" x2="520" y2="435" stroke="#e5e7eb" stroke-width="1" stroke-dasharray="5,5"/>

  <text x="95" y="460" fill="#64748b" font-family="Arial" font-size="10">PAYMENT FOR (FEES PAID)</text>
  <text x="95" y="485" fill="#1e293b" font-family="Arial" font-size="12">School Meals</text>
  <text x="480" y="485" text-anchor="end" fill="#10b981" font-family="Arial" font-size="12">Paid</text>

  <line x1="80" y1="500" x2="520" y2="500" stroke="#e5e7eb" stroke-width="1" stroke-dasharray="5,5"/>

  <rect x="80" y="515" width="440" height="100" rx="8" fill="#f0fdf4"/>
  <text x="100" y="540" fill="#065f46" font-family="Arial" font-size="12" font-weight="bold">📧 What's Next?</text>
  <text x="100" y="560" fill="#065f46" font-family="Arial" font-size="11">• A confirmation email has been sent to your registered email</text>
  <text x="100" y="578" fill="#065f46" font-family="Arial" font-size="11">• Your school's finance office will verify the payment within 24 hrs</text>
  <text x="100" y="596" fill="#065f46" font-family="Arial" font-size="11">• You can download this receipt for your records</text>

  <!-- Footer -->
  <text x="300" y="640" text-anchor="middle" fill="#64748b" font-family="Arial" font-size="10">School Finance Office | Email: fees@school.edu | Phone: +256 XXX XXXX</text>
</svg>